<svg width="55" height="42" viewBox="0 0 55 42" fill="none" xmlns="http://www.w3.org/2000/svg">
<path d="M9.89203 22.3465C12.241 25.3637 12.0046 26.2397 6.89113 34.6352C7.80756 34.4154 8.4689 34.3254 9.08286 34.0989C14.8454 31.9737 20.2509 29.1104 25.3245 25.6171C33.6383 19.8925 41.5096 13.5938 48.7054 6.46974C50.2127 4.97744 52.0584 3.65275 52.4028 1.21139C52.469 0.742074 53.5453 0.400476 54.1556 -2.86102e-06C54.3842 0.186624 54.6129 0.373243 54.8416 0.559962C54.4149 1.71224 54.2119 3.02942 53.5156 3.98315C51.9673 6.10386 50.3293 8.20895 48.4492 10.0258C41.4938 16.7473 34.2148 23.1296 26.0876 28.3379C21.2264 31.4534 15.9358 33.8789 10.8079 36.5537C9.45983 37.2569 7.99906 37.7337 5.97667 38.5673C7.1797 38.8271 7.8107 39.103 8.43371 39.0754C12.6501 38.8887 16.8645 38.6278 21.0803 38.4149C22.0922 38.3638 23.5774 37.7205 23.8005 39.2255C24.0279 40.7603 22.4126 40.6395 21.4461 40.8281C15.2053 42.0456 8.95786 42.0746 2.67916 41.3536C-0.242659 41.018 -0.721625 39.3751 0.983579 37.132C2.4447 35.21 3.97555 33.3267 5.62241 31.5661C7.94954 29.0782 9.5241 26.2812 9.89203 22.3465Z" fill="white"/>
</svg>
