<svg width="55" height="42" viewBox="0 0 55 42" fill="none" xmlns="http://www.w3.org/2000/svg">
<path d="M44.9496 22.3465C42.6006 25.3637 42.8371 26.2397 47.9505 34.6352C47.0341 34.4154 46.3727 34.3254 45.7588 34.0989C39.9962 31.9737 34.5907 29.1104 29.5172 25.6171C21.2033 19.8925 13.332 13.5938 6.13623 6.46974C4.62893 4.97744 2.7832 3.65275 2.43879 1.21139C2.37261 0.742074 1.29634 0.400476 0.686052 -2.86102e-06C0.457372 0.186624 0.228697 0.373243 -7.31446e-06 0.559962C0.426761 1.71224 0.629746 3.02942 1.32599 3.98315C2.87433 6.10386 4.51235 8.20895 6.3924 10.0258C13.3478 16.7473 20.6268 23.1296 28.754 28.3379C33.6152 31.4534 38.9058 33.8789 44.0337 36.5537C45.3818 37.2569 46.8426 37.7337 48.8649 38.5673C47.6619 38.8271 47.0309 39.103 46.4079 39.0754C42.1915 38.8887 37.9771 38.6278 33.7613 38.4149C32.7494 38.3638 31.2642 37.7205 31.0411 39.2255C30.8137 40.7603 32.429 40.6395 33.3956 40.8281C39.6363 42.0456 45.8838 42.0746 52.1625 41.3536C55.0843 41.018 55.5632 39.3751 53.858 37.132C52.3969 35.21 50.8661 33.3267 49.2192 31.5661C46.8921 29.0782 45.3175 26.2812 44.9496 22.3465Z" fill="white"/>
</svg>
