<svg width="55" height="42" viewBox="0 0 55 42" fill="none" xmlns="http://www.w3.org/2000/svg">
<path d="M9.89207 22.3465C12.241 25.3637 12.0046 26.2397 6.89117 34.6352C7.8076 34.4154 8.46894 34.3254 9.08291 34.0989C14.8454 31.9737 20.2509 29.1104 25.3245 25.6171C33.6383 19.8925 41.5097 13.5938 48.7054 6.46974C50.2127 4.97744 52.0585 3.65275 52.4029 1.21139C52.4691 0.742074 53.5453 0.400476 54.1556 -2.86102e-06C54.3843 0.186624 54.613 0.373243 54.8417 0.559962C54.4149 1.71224 54.2119 3.02942 53.5157 3.98315C51.9673 6.10386 50.3293 8.20895 48.4493 10.0258C41.4939 16.7473 34.2148 23.1296 26.0877 28.3379C21.2264 31.4534 15.9359 33.8789 10.808 36.5537C9.45988 37.2569 7.9991 37.7337 5.97671 38.5673C7.17974 38.8271 7.81074 39.103 8.43376 39.0754C12.6501 38.8887 16.8646 38.6278 21.0804 38.4149C22.0923 38.3638 23.5775 37.7205 23.8005 39.2255C24.0279 40.7603 22.4127 40.6395 21.4461 40.8281C15.2054 42.0456 8.95791 42.0746 2.67921 41.3536C-0.242613 41.018 -0.72158 39.3751 0.983624 37.132C2.44474 35.21 3.9756 33.3267 5.62245 31.5661C7.94959 29.0782 9.52415 26.2812 9.89207 22.3465Z" fill="white"/>
</svg>
